<?xml version="1.0" encoding="UTF-8" standalone="no"?>
<!DOCTYPE svg PUBLIC "-//W3C//DTD SVG 1.1//EN" "http://www.w3.org/Graphics/SVG/1.1/DTD/svg11.dtd">
<svg width="100%" height="100%" viewBox="0 0 1122 534" version="1.1" xmlns="http://www.w3.org/2000/svg" xmlns:xlink="http://www.w3.org/1999/xlink" xml:space="preserve" xmlns:serif="http://www.serif.com/" style="fill-rule:evenodd;clip-rule:evenodd;stroke-linejoin:round;stroke-miterlimit:2;">
    <g>
        <g>
            <circle cx="565.8" cy="192.5" r="72"/>
            <circle cx="565.8" cy="192.5" r="61.7" style="fill:rgb(236,196,0);"/>
            <g transform="matrix(1,0,0,1,0.637473,-139.383)">
                <g transform="matrix(120,0,0,120,609.547,373.895)">
                </g>
                <text x="521.071px" y="373.895px" style="font-family:'Gadugi-Bold', 'Gadugi';font-weight:700;font-size:120px;fill:white;">D</text>
            </g>
        </g>
        <g>
            <circle cx="888.8" cy="154.5" r="72"/>
            <circle cx="888.8" cy="154.5" r="61.7" style="fill:rgb(88,25,198);"/>
            <g transform="matrix(1,0,0,1,323.637,-177.383)">
                <g transform="matrix(120,0,0,120,597.243,373.895)">
                </g>
                <text x="533.375px" y="373.895px" style="font-family:'Gadugi-Bold', 'Gadugi';font-weight:700;font-size:120px;fill:white;">E</text>
            </g>
        </g>
        <g>
            <circle cx="857.8" cy="336.5" r="72"/>
            <circle cx="857.8" cy="336.5" r="61.7" style="fill:rgb(90,203,55);"/>
            <g transform="matrix(1,0,0,1,287.843,4.58749)">
                <g transform="matrix(120,0,0,120,602.75,373.895)">
                </g>
                <text x="527.868px" y="373.895px" style="font-family:'Gadugi-Bold', 'Gadugi';font-weight:700;font-size:120px;fill:white;">C</text>
            </g>
        </g>
        <g>
            <circle cx="688.8" cy="308.5" r="72"/>
            <circle cx="688.8" cy="308.5" r="61.7" style="fill:rgb(44,182,255);"/>
        </g>
        <g transform="matrix(1,0,0,1,123.637,-23.3832)">
            <g transform="matrix(120,0,0,120,603.776,373.895)">
            </g>
            <text x="526.842px" y="373.895px" style="font-family:'Gadugi-Bold', 'Gadugi';font-weight:700;font-size:120px;fill:white;">B</text>
        </g>
        <g>
            <circle cx="532.8" cy="373.5" r="72"/>
            <circle cx="532.8" cy="373.5" r="61.7" style="fill:rgb(234,22,60);"/>
            <g transform="matrix(1,0,0,1,-32.3625,41.6168)">
                <g transform="matrix(120,0,0,120,607.497,373.895)">
                </g>
                <text x="523.122px" y="373.895px" style="font-family:'Gadugi-Bold', 'Gadugi';font-weight:700;font-size:120px;fill:white;">A</text>
            </g>
        </g>
    </g>
    <circle cx="303.8" cy="308.5" r="57"/>
    <g>
        <circle cx="82.4" cy="92.5" r="41"/>
        <circle cx="82.4" cy="92.5" r="35.1" style="fill:rgb(26,26,26);"/>
    </g>
    <path d="M104.5,192.7L58.4,192.7C49.623,192.7 42.4,185.477 42.4,176.7C42.4,167.923 49.623,160.7 58.4,160.7L104.5,160.7C113.277,160.7 120.5,167.923 120.5,176.7C120.44,185.455 113.255,192.64 104.5,192.7Z" style="fill:rgb(26,26,26);fill-rule:nonzero;"/>
    <g>
        <circle cx="81.3" cy="235.5" r="41"/>
        <circle cx="81.3" cy="235.5" r="35.1" style="fill:rgb(26,26,26);"/>
    </g>
    <g>
        <path d="M52.1,179.1C52.1,181 53.6,181.7 55.3,181.7C56.4,181.7 58.1,181.4 58.1,179.9C58.1,178.4 55.9,178.1 53.9,177.5C51.9,176.9 49.6,176.1 49.6,173.4C49.6,170.5 52.4,169.1 54.9,169.1C57.9,169.1 60.6,170.4 60.6,173.7L57.6,173.7C57.5,172 56.3,171.5 54.8,171.5C53.8,171.5 52.6,171.9 52.6,173.1C52.6,174.3 53.3,174.4 56.9,175.3C58,175.5 61.1,176.2 61.1,179.5C61.1,182.1 59.1,184.1 55.2,184.1C52,184.1 49.1,182.5 49.1,179L52.1,179L52.1,179.1Z" style="fill:white;fill-rule:nonzero;"/>
        <path d="M66.1,172.2L61.8,172.2L61.8,169.6L73.5,169.6L73.5,172.2L69.2,172.2L69.2,183.8L66.1,183.8L66.1,172.2Z" style="fill:white;fill-rule:nonzero;"/>
        <path d="M79,169.6L82.2,169.6L87.5,183.9L84.2,183.9L83.1,180.7L77.8,180.7L76.7,183.9L73.5,183.9L79,169.6ZM78.7,178.3L82.4,178.3L80.6,173.1L78.7,178.3Z" style="fill:white;fill-rule:nonzero;"/>
        <path d="M88.8,169.6L96.5,169.6C96.593,169.593 96.687,169.59 96.78,169.59C98.927,169.59 100.695,171.353 100.7,173.5C100.811,175.072 99.873,176.541 98.4,177.1C99.9,177.5 100.4,179 100.5,180.4C100.6,181.3 100.5,183 101.1,183.8L98,183.8C97.721,182.686 97.554,181.547 97.5,180.4C97.3,178.9 96.7,178.2 95.1,178.2L92,178.2L92,183.8L88.9,183.8L88.9,169.6L88.8,169.6ZM92,176L95.4,176C96.8,176 97.6,175.4 97.6,174C97.6,172.6 96.9,172 95.4,172L92,172L92,176Z" style="fill:white;fill-rule:nonzero;"/>
        <path d="M106.4,172.2L102.1,172.2L102.1,169.6L113.8,169.6L113.8,172.2L109.5,172.2L109.5,183.8L106.4,183.8L106.4,172.2Z" style="fill:white;fill-rule:nonzero;"/>
    </g>
    <path d="M149.9,46L16,46C7.223,46 0,38.777 0,30C-0,21.223 7.223,14 16,14L149.9,14C158.677,14 165.9,21.223 165.9,30C165.84,38.755 158.655,45.94 149.9,46Z" style="fill:rgb(26,26,26);fill-rule:nonzero;"/>
    <g>
        <path d="M7,22.9L13.7,22.9C16.4,22.9 18.3,23.8 18.3,26.4C18.333,27.69 17.58,28.879 16.4,29.4C18.036,29.781 19.153,31.327 19,33C19,35.9 16.5,37.1 14,37.1L7,37.1L7,22.9ZM10.2,28.7L13.4,28.7C14.5,28.7 15.3,28.2 15.3,27C15.3,25.8 14.3,25.4 13.1,25.4L10.2,25.4L10.2,28.7ZM10.2,34.7L13.6,34.7C14.8,34.7 15.9,34.3 15.9,32.8C15.9,31.3 15,30.8 13.6,30.8L10.2,30.8L10.2,34.7Z" style="fill:white;fill-rule:nonzero;"/>
        <path d="M25,22.9L28.2,22.9L33.5,37.2L30.2,37.2L29.2,34L23.9,34L22.8,37.2L19.6,37.2L25,22.9ZM24.7,31.6L28.4,31.6L26.6,26.4L24.7,31.6Z" style="fill:white;fill-rule:nonzero;"/>
        <path d="M44.3,27.7C44,26.238 42.693,25.184 41.2,25.2C38.4,25.2 37.3,27.6 37.3,30.1C37.3,32.6 38.4,34.9 41.2,34.9C43.1,34.9 44.2,33.6 44.4,31.7L47.4,31.7C47.297,34.917 44.622,37.508 41.403,37.508C41.302,37.508 41.201,37.505 41.1,37.5C36.7,37.5 34.1,34.2 34.1,30.1C34.1,26 36.7,22.6 41.1,22.6C44.2,22.6 46.9,24.4 47.3,27.7L44.3,27.7Z" style="fill:white;fill-rule:nonzero;"/>
        <path d="M49.6,22.9L52.7,22.9L52.7,28.8L58.3,22.9L62.2,22.9L56.6,28.5L62.7,37.1L58.8,37.1L54.5,30.7L52.7,32.5L52.7,37.1L49.6,37.1L49.6,22.9Z" style="fill:white;fill-rule:nonzero;"/>
        <path d="M73.6,22.5L75.9,22.5L70.3,37.5L68,37.5L73.6,22.5Z" style="fill:white;fill-rule:nonzero;"/>
        <path d="M84.8,32.4C84.8,34.3 86.3,35 88,35C89.1,35 90.8,34.7 90.8,33.2C90.8,31.7 88.6,31.4 86.6,30.8C84.6,30.2 82.3,29.4 82.3,26.7C82.3,23.8 85.1,22.4 87.6,22.4C90.6,22.4 93.3,23.7 93.3,27L90.3,27C90.2,25.3 89,24.8 87.5,24.8C86.5,24.8 85.3,25.2 85.3,26.4C85.3,27.6 86,27.7 89.6,28.6C90.7,28.8 93.8,29.5 93.8,32.8C93.8,35.4 91.8,37.4 87.9,37.4C84.7,37.4 81.8,35.8 81.8,32.3L84.8,32.3L84.8,32.4Z" style="fill:white;fill-rule:nonzero;"/>
        <path d="M95.6,22.9L106.3,22.9L106.3,25.5L98.8,25.5L98.8,28.6L105.7,28.6L105.7,31L98.8,31L98.8,34.5L106.5,34.5L106.5,37.1L95.6,37.1L95.6,22.9Z" style="fill:white;fill-rule:nonzero;"/>
        <path d="M108.6,22.9L111.7,22.9L111.7,34.5L118.7,34.5L118.7,37.1L108.6,37.1L108.6,22.9Z" style="fill:white;fill-rule:nonzero;"/>
        <path d="M120.4,22.9L131.1,22.9L131.1,25.5L123.6,25.5L123.6,28.6L130.5,28.6L130.5,31L123.6,31L123.6,34.5L131.3,34.5L131.3,37.1L120.5,37.1L120.5,22.9L120.4,22.9Z" style="fill:white;fill-rule:nonzero;"/>
        <path d="M142.9,27.7C142.6,26.238 141.293,25.184 139.8,25.2C137,25.2 135.9,27.6 135.9,30.1C135.9,32.6 137,34.9 139.8,34.9C141.7,34.9 142.8,33.6 143,31.7L146,31.7C145.897,34.917 143.222,37.508 140.003,37.508C139.902,37.508 139.801,37.505 139.7,37.5C135.3,37.5 132.7,34.2 132.7,30.1C132.7,26 135.3,22.6 139.7,22.6C142.8,22.6 145.5,24.4 145.9,27.7L142.9,27.7Z" style="fill:white;fill-rule:nonzero;"/>
        <path d="M151.4,25.5L147.1,25.5L147.1,22.9L158.8,22.9L158.8,25.5L154.5,25.5L154.5,37.1L151.4,37.1L151.4,25.5Z" style="fill:white;fill-rule:nonzero;"/>
    </g>
</svg>
